<svg xmlns="http://www.w3.org/2000/svg" xmlns:xlink="http://www.w3.org/1999/xlink" width="192" height="192">
  <defs>
    <linearGradient id="c" x1="50%" x2="50%" y1="0%" y2="100%">
      <stop offset="0%" stop-color="#F857A6"/>
      <stop offset="100%" stop-color="#FF5858"/>
    </linearGradient>
    <linearGradient id="d" x1="0%" x2="100%" y1="50%" y2="50%">
      <stop offset="0%" stop-color="#142339"/>
      <stop offset="100%" stop-color="#1D3557"/>
    </linearGradient>
    <circle id="a" cx="96" cy="96.19" r="96"/>
  </defs>
  <g fill="none" fill-rule="evenodd">
    <mask id="b" fill="#fff">
      <use xlink:href="#a"/>
    </mask>
    <use fill="#D8D8D8" xlink:href="#a"/>
    <g mask="url(#b)">
      <path fill="url(#c)" fill-rule="nonzero" d="M0 0h192v192H0z"/>
      <path fill="url(#d)" fill-rule="nonzero" d="M95.52 40.06c.47-.2 11.65-5 26.8-3.33 11.38 1.26 24.73 5.18 28.9 11.08l.92 1.34a1 1 0 01-.02 1.16l-.1.1c2.56 5.73 3.54 12.81 3.8 15 .75.28 1.23.6 1.33 1.15a1 1 0 01.02.09l2.44 23.61a1 1 0 01-1 1.1h-.05l1.64 33.1c-8.75 1.12-23.6 1.21-26.15 1.22h-.18l-2.28-.94c-19.27-7.87-26.31-10.35-32.82-10.52l-19.7-.27 7.3-23.6a.66.66 0 01.5-.46l11.44-2.22a.4.4 0 01.08-.01c.08 0 9.03-.76 23.08-.76 4.2 0 8.5.07 12.75.2 14.42.45 20.66 1.35 23.26 1.92l-2.25-21.7a4.42 4.42 0 00-.22-.08l-.09-.01c-1.86-.56-7.32-1.67-22.88-2.83-7.33-.54-14.13-.81-20.22-.81-5.1 0-8.72.2-10.86.36-1.97.15-3.9.58-5.72 1.26l-6.75 2.55a6.79 6.79 0 00-4.05 4.2l-14.48 42.68a5.14 5.14 0 01-4.86 3.5l-.13-.01-27.84-.66a.67.67 0 01-.65-.67v-13.55c0-.33.25-.61.59-.66l28.35-3.64 13.41-37.76A21.95 21.95 0 0190 48.71l6.27-3.03c1.96-.95 5.43-1.39 10.93-1.39 5.75 0 13.31.49 20.63 1.02 10.57.76 17.31 2.1 20.81 2.97l-.11-.17a1 1 0 01-.16-.5c-3.78-3.48-12.92-7.41-26.27-8.89-14.24-1.58-25.08 2.88-25.75 3.16-2.72 1.44-54.76 29.1-56.6 29.85-.65.26-1.4 1.3-2.02 2.38l.4-.25c.01-.02.04-.03.06-.04L72.4 57.24a.67.67 0 01.93.81L67.7 74.89a.67.67 0 01-.4.42L33.85 87.36c-.85 2.86-.82 5.2-.82 5.22l-.66 39.06 1.74 1.25 3.47.82v-3.3c0-3.26.57-8.8 2.67-8.8 2.05 0 2.63 5.25 2.66 8.55v4.81l28.91 6.8V137c0-6.49 1.86-13.38 5.3-13.38 3.45 0 5.3 6.9 5.3 13.38l-.01 1.14v6.14l9.5 2.24c1.85.43 3.74.6 5.63.52l1.73-.08 39.3-2.12 20.64-1.6v-.86-.11a502.83 502.83 0 00-29.4-12.99c-18.8-7.68-25.6-10.1-31.5-10.25l-19.78-.5c-.2 0-.4-.1-.52-.28a.67.67 0 01-.1-.58l.54-1.72 20.27.28c6.18.16 13.1 2.6 32.1 10.38l2.3.94.15.07a1 1 0 00.39.08h.47c2.94-.01 18.33-.11 27.1-1.35v5.16c-.52-.72-1.22-1.15-2-1.15-1.69 0-3 2.01-3 4.58 0 2.57 1.32 4.58 3 4.58.78 0 1.48-.43 2.01-1.15v3.45c0 .1-.03.2-.07.28.02.1.04.18.04.28v1.8a1 1 0 01-.92 1l-21.59 1.66-5.89.32c-.97 1.76-2 2.16-2.74 2.16h-5.42c-.88 0-1.69-.54-2.39-1.6l-22.89 1.24-1.73.08-1.05.02c-1.73 0-3.45-.2-5.13-.6l-4.14-.97c-.67 1.53-1.6 2.9-3.24 2.9h-6.96c-2.16 0-3.7-2.73-4.54-6.37l-24.4-5.75c-.37.66-.88.97-1.59.97h-6.34c-1.08 0-1.76-1.47-2.16-3.35l-4.62-1.09a.99.99 0 01-.36-.16l-2.33-1.66a1 1 0 01-.41-.84l.66-39.55c0-.07-.04-2.68.93-5.88L35 75.2a.82.82 0 01.04-.12c.29-.72 1.84-4.35 3.96-5.21 1.48-.62 41.26-21.71 56.46-29.79a.98.98 0 01.07-.03zm19.42 103.56a.94.94 0 110 1.88.94.94 0 010-1.88zm28.99-3.37l.07 3.08s-4.03.4-13.13.67v-3.26l13.06-.49zm11.88 1.13a.94.94 0 110 1.87.94.94 0 010-1.88zm-44.43-8.63c2.68 0 4.87 2.1 4.87 4.69a4.79 4.79 0 01-4.87 4.69 4.79 4.79 0 01-4.88-4.7 4.79 4.79 0 014.88-4.68zm48-1.88c1.24 0 2.25 1.77 2.25 3.94 0 2.18-1.01 3.94-2.25 3.94-1.25 0-2.25-1.76-2.25-3.94 0-2.17 1-3.94 2.25-3.94zm-48 5.42c-.67 0-1.2.52-1.2 1.15 0 .63.53 1.14 1.2 1.14.66 0 1.2-.51 1.2-1.14 0-.63-.54-1.15-1.2-1.15zm26.43-2.04c.73 0 1.31.67 1.31 1.5s-.58 1.5-1.3 1.5c-.73 0-1.32-.67-1.32-1.5s.59-1.5 1.31-1.5zm21.77-.64c-.38 0-.69.54-.69 1.2 0 .67.3 1.2.69 1.2.38 0 .68-.53.68-1.2 0-.66-.3-1.2-.68-1.2zm-45.8-63.48c4.29 0 10.96.12 19.41.59 1.46.08 15.52 1.03 19.97 1.9a2 2 0 011.6 1.74l1.2 10.26c.02.04.04.14.04.24a1 1 0 01-1 1.02h-.06l-.1-.02c-.08 0-9.55-1.1-21.15-1.43a464.7 464.7 0 00-8.92-.06h-3.49l-10.5.02h-.32c-.54 0-.98-.41-1.02-.94l-.69-11.16c-.03-.56.16-1.1.54-1.5.37-.41.9-.65 1.44-.65l2.4-.02z"/>
      <path d="M0 137.83c.04 18.16 1.94 25.1 5.46 31.83l.25.47a38.84 38.84 0 0016.16 16.16c6.97 3.73 13.88 5.71 32.93 5.71H0zm192-.63V192h-54.8c18.62 0 25.65-1.9 32.46-5.46l.47-.25a38.84 38.84 0 0016.16-16.16c3.73-6.97 5.71-13.88 5.71-32.93zm0-82.4c0-18.62-1.9-25.65-5.46-32.46l-.25-.47a38.84 38.84 0 00-16.16-16.16C163.16 1.98 156.25 0 137.2 0H192zM0 0h54.17C36 .04 29.07 1.94 22.34 5.46l-.47.25A38.84 38.84 0 005.71 21.87C1.98 28.84 0 35.75 0 54.8V0z"/>
    </g>
  </g>
</svg>
